<svg width="81" height="59" viewBox="0 0 81 59" fill="none" xmlns="http://www.w3.org/2000/svg">
<path d="M65.876 15.5928C65.0099 11.5898 62.4614 7.93646 58.5639 5.1641C54.2332 2.08082 48.6033 0.383718 42.7403 0.383718C38.2097 0.383718 33.7958 1.39421 30.0148 3.29859C26.8667 4.87909 24.2517 7.01666 22.4028 9.52992C21.6033 9.41333 20.7705 9.34855 19.9377 9.34855C12.8587 9.34855 7.09562 13.831 7.09562 19.3368C7.09562 20.0494 7.19556 20.736 7.36212 21.4096C2.78162 24.0006 0 28.1721 0 32.6157C0 36.2042 1.71561 39.6891 4.84701 42.4485C8.06169 45.2727 12.3091 46.9439 16.8396 47.1382C16.8896 47.1382 16.9229 47.1382 16.9729 47.1382H31.2973C32.5466 47.1382 33.546 46.3609 33.546 45.3893C33.546 44.4176 32.5466 43.6403 31.2973 43.6403H17.0395C10.227 43.3165 4.49722 38.277 4.49722 32.6027C4.49722 28.9365 7.02899 25.5164 11.1098 23.6638C12.0592 23.2363 12.459 22.3424 12.0925 21.5392C11.7594 20.8396 11.5928 20.1012 11.5928 19.3109C11.5928 15.7354 15.3405 12.8205 19.9377 12.8205C20.9204 12.8205 21.8865 12.95 22.7859 13.2091C23.8853 13.5201 25.1012 13.1314 25.6009 12.3152C28.7156 7.17212 35.4448 3.85565 42.7569 3.85565C52.5842 3.85565 60.6959 9.58175 61.6286 17.1734C61.7286 17.9636 62.4948 18.5984 63.4941 18.7279C70.9062 19.7125 76.5028 25.037 76.5028 31.1129C76.5028 37.5515 69.9901 43.1481 61.9618 43.6274H49.686C48.4368 43.6274 47.4374 44.4047 47.4374 45.3763C47.4374 46.3479 48.4368 47.1252 49.686 47.1252H62.045C62.095 47.1252 62.145 47.1252 62.2116 47.1252C67.2918 46.8402 72.0389 45.0265 75.57 41.9951C79.0845 38.9895 81 35.1289 81 31.1129C80.9833 23.8452 74.604 17.3806 65.876 15.5928Z" fill="#971B1E" fill-opacity="0.3"/>
<path d="M53.9999 34.2739C54.8827 33.5873 54.8827 32.4861 53.9999 31.7995L42.0906 22.5367C41.6742 22.2128 41.0912 22.0185 40.5083 22.0185C39.9253 22.0185 39.3423 22.1999 38.9259 22.5367L27.0166 31.7995C26.1338 32.4861 26.1338 33.5873 27.0166 34.2739C27.4496 34.6107 28.0326 34.7921 28.5989 34.7921C29.1653 34.7921 29.7482 34.6237 30.1813 34.2739L38.2596 27.9908V56.8674C38.2596 57.839 39.259 58.6163 40.5083 58.6163C41.7575 58.6163 42.7569 57.839 42.7569 56.8674V27.9908L50.8352 34.2739C51.7013 34.9605 53.1171 34.9605 53.9999 34.2739Z" fill="#971B1E" fill-opacity="0.3"/>
</svg>
